<svg xmlns="http://www.w3.org/2000/svg" viewBox="0 0 511.55 498.92"><defs><style>.cls-1,.cls-2{fill:#221e1b;}.cls-1{fill-rule:evenodd;}</style></defs><title>Recurso 1_512</title><g id="Capa_2" data-name="Capa 2"><g id="Capa_1-2" data-name="Capa 1"><path class="cls-1" d="M255.77,0C114.53,0,0,114.51,0,255.77c0,113,73.29,208.89,174.91,242.71,12.79,2.36,17.48-5.55,17.48-12.31,0-6.09-.24-26.25-.35-47.62-71.15,15.48-86.17-30.18-86.17-30.18C94.24,378.81,77.47,371,77.47,371c-23.21-15.88,1.75-15.55,1.75-15.55,25.68,1.8,39.21,26.36,39.21,26.36,22.81,39.1,59.83,27.8,74.43,21.26,2.3-16.53,8.92-27.82,16.24-34.2-56.81-6.47-116.53-28.4-116.53-126.41,0-27.92,10-50.74,26.35-68.65-2.65-6.44-11.41-32.46,2.48-67.69,0,0,21.48-6.87,70.35,26.22a242.54,242.54,0,0,1,128.1,0c48.82-33.09,70.27-26.22,70.27-26.22,13.92,35.23,5.16,61.25,2.51,67.69C409,191.67,419,214.49,419,242.41c0,98.24-59.84,119.87-116.79,126.21,9.17,7.93,17.35,23.5,17.35,47.36,0,34.22-.3,61.77-.3,70.19,0,6.81,4.61,14.79,17.57,12.27,101.57-33.86,174.77-129.7,174.77-242.67C511.55,114.51,397,0,255.77,0Z"/><path class="cls-2" d="M96.88,367.23c-.57,1.28-2.57,1.66-4.39.79s-2.89-2.57-2.29-3.85,2.55-1.67,4.4-.8,2.92,2.59,2.28,3.86Z"/><path class="cls-2" d="M107.24,378.79c-1.22,1.13-3.61.6-5.23-1.18s-2-4.17-.75-5.32,3.57-.6,5.25,1.19,2,4.16.73,5.31Z"/><path class="cls-2" d="M117.32,393.52c-1.57,1.09-4.13.07-5.72-2.2s-1.56-5,0-6.1,4.11-.11,5.72,2.15,1.56,5,0,6.15Z"/><path class="cls-2" d="M131.14,407.75c-1.41,1.55-4.39,1.13-6.58-1s-2.85-5-1.45-6.53,4.42-1.12,6.62,1,2.9,5,1.41,6.53Z"/><path class="cls-2" d="M150.2,416c-.62,2-3.5,2.91-6.39,2.06s-4.79-3.23-4.21-5.25,3.49-3,6.41-2.05,4.79,3.2,4.19,5.24Z"/><path class="cls-2" d="M171.13,417.55c.07,2.11-2.39,3.86-5.43,3.89s-5.53-1.63-5.56-3.71,2.4-3.86,5.46-3.91,5.53,1.63,5.53,3.73Z"/><path class="cls-2" d="M190.61,414.23c.36,2.06-1.75,4.17-4.77,4.74s-5.72-.73-6.1-2.77,1.78-4.22,4.75-4.77,5.73.71,6.12,2.8Z"/></g></g></svg>