<svg xmlns="http://www.w3.org/2000/svg" viewBox="0 0 512 512"><defs><style>.cls-1{fill:#1da1f2;}.cls-2{fill:#fff;}</style></defs><title>Recurso 5_512</title><g id="Capa_2" data-name="Capa 2"><g id="Capa_1-2" data-name="Capa 1"><g id="Dark_Blue" data-name="Dark Blue"><path class="cls-1" d="M448,512H64A64,64,0,0,1,0,448V64A64,64,0,0,1,64,0H448a64,64,0,0,1,64,64V448A64,64,0,0,1,448,512Z"/></g><g id="Logo_FIXED" data-name="Logo — FIXED"><path class="cls-2" d="M196.61,386.05c120.7,0,186.75-100.1,186.75-186.75,0-2.82,0-5.64-.13-8.45a133.83,133.83,0,0,0,32.77-34,133.21,133.21,0,0,1-37.76,10.37,66,66,0,0,0,28.93-36.35,130.7,130.7,0,0,1-41.73,15.87A65.65,65.65,0,0,0,251.9,191.62a72.05,72.05,0,0,0,1.67,15A186.41,186.41,0,0,1,118.27,138a65.91,65.91,0,0,0,20.35,87.68,66.23,66.23,0,0,1-29.69-8.19v.9a65.76,65.76,0,0,0,52.61,64.38A65.74,65.74,0,0,1,132,283.9a65.62,65.62,0,0,0,61.31,45.57,131.62,131.62,0,0,1-81.54,28.16,126.3,126.3,0,0,1-15.61-.89,186.73,186.73,0,0,0,100.48,29.31"/></g></g></g></svg>